<svg width="175" height="27" fill="none" xmlns="http://www.w3.org/2000/svg"><path d="M6.296 19.311c-.881 0-1.654-.107-2.32-.322-.66-.222-1.193-.476-1.601-.762l-.612.784h-.86l1.053-5.221h.87c.036.623.118 1.207.247 1.751.136.544.355 1.035.656 1.472.3.45.69.802 1.17 1.052.48.244 1.075.366 1.784.366 1.067 0 1.922-.294 2.567-.881.645-.595.967-1.404.967-2.428 0-.551-.136-1.042-.408-1.472-.273-.43-.68-.762-1.225-.999a20.438 20.438 0 0 0-1.536-.59 14.776 14.776 0 0 1-1.483-.623 3.886 3.886 0 0 1-1.557-1.322 3.4 3.4 0 0 1-.591-1.955c0-.687.15-1.321.451-1.901a5.039 5.039 0 0 1 1.214-1.504c.487-.408 1.074-.734 1.762-.978a6.206 6.206 0 0 1 2.062-.365 7 7 0 0 1 1.805.226c.573.15 1.146.433 1.719.848l.59-.73h.86l-1.085 5.06h-.87a14.527 14.527 0 0 0-.172-1.709c-.086-.587-.236-1.074-.451-1.46a2.523 2.523 0 0 0-.989-.989c-.422-.243-.984-.365-1.686-.365-.845 0-1.554.294-2.127.88-.573.58-.86 1.272-.86 2.074 0 .53.104.981.312 1.354.215.365.544.662.988.891.473.244.967.455 1.483.634.523.172.988.354 1.396.548.824.386 1.465.852 1.923 1.396.466.545.698 1.21.698 1.998a4.69 4.69 0 0 1-.494 2.127c-.33.66-.77 1.21-1.321 1.655a6.371 6.371 0 0 1-1.955 1.085c-.716.25-1.508.375-2.374.375Zm9.872-.085c-.68 0-1.178-.136-1.493-.409-.315-.279-.472-.676-.472-1.192 0-.165.01-.319.032-.462.021-.15.05-.319.086-.505l1.665-7.176h-1.912l.225-.977h1.955l.752-3.148h1.934l-.73 3.148h2.996l-.225.977h-2.976l-1.375 5.92c-.064.272-.118.537-.16.794-.044.25-.065.466-.065.645 0 .394.096.684.29.87.2.179.558.269 1.074.269.186 0 .448-.022.784-.065.337-.05.598-.111.784-.183l-.182.785a21.24 21.24 0 0 1-1.418.494c-.444.143-.967.215-1.569.215Zm13.901-8.83c0 .759-.24 1.41-.72 1.955-.472.544-1.163.977-2.073 1.3-.666.243-1.339.44-2.02.59-.68.15-1.432.276-2.255.376 0 1.132.207 1.998.623 2.6.422.594 1.038.891 1.848.891.716 0 1.346-.179 1.89-.537.552-.358 1.092-.891 1.622-1.6l.613.45a6.736 6.736 0 0 1-2.149 2.096c-.86.522-1.75.784-2.675.784-1.267 0-2.238-.355-2.91-1.064-.667-.709-1-1.715-1-3.018 0-.903.14-1.762.42-2.578a7.562 7.562 0 0 1 1.245-2.256 6.151 6.151 0 0 1 1.945-1.612 5.392 5.392 0 0 1 2.556-.612c1.031 0 1.794.211 2.288.634.502.415.752.949.752 1.6Zm-1.976-.269c0-.28-.04-.498-.119-.655a.863.863 0 0 0-.3-.366.997.997 0 0 0-.409-.16 2.965 2.965 0 0 0-.44-.033c-.86 0-1.654.473-2.385 1.418-.723.945-1.181 2.123-1.375 3.534a29.088 29.088 0 0 0 1.698-.3c.63-.137 1.153-.312 1.568-.527.594-.308 1.035-.702 1.321-1.182.294-.486.44-1.063.44-1.729Zm13.933 2.138c0 .96-.169 1.869-.505 2.728a7.4 7.4 0 0 1-1.343 2.234c-.623.695-1.3 1.21-2.03 1.547a5.24 5.24 0 0 1-2.235.505c-.615 0-1.12-.075-1.514-.225a4.59 4.59 0 0 1-1.053-.559l-.623 2.815a9.311 9.311 0 0 0-.108.505 2.95 2.95 0 0 0-.032.375c0 .194.068.348.204.462.144.115.305.197.484.247.179.058.38.1.601.13.222.028.423.05.602.064l-.15.677h-5.92l.151-.677c.23-.015.444-.032.645-.054.2-.021.39-.057.569-.107a.957.957 0 0 0 .526-.366c.136-.171.233-.386.29-.644l2.245-9.883c.058-.272.111-.544.162-.816.05-.28.075-.52.075-.72 0-.401-.065-.67-.194-.806-.121-.136-.39-.204-.805-.204a2.45 2.45 0 0 0-.602.097c-.243.057-.433.104-.57.14l.162-.688c.544-.243 1.035-.43 1.472-.559.437-.136.809-.204 1.117-.204.501 0 .88.13 1.139.387.257.25.418.602.483 1.053h.086a7.427 7.427 0 0 1 1.557-1.117c.559-.294 1.114-.44 1.666-.44 1.088 0 1.933.372 2.535 1.116.608.738.913 1.733.913 2.987ZM38.674 16.7a7.164 7.164 0 0 0 .838-1.998c.2-.752.3-1.547.3-2.385 0-.38-.035-.759-.107-1.138-.064-.387-.172-.706-.322-.956a1.64 1.64 0 0 0-.644-.645c-.272-.157-.63-.236-1.075-.236-.33 0-.694.1-1.095.3-.394.201-.878.577-1.45 1.128l-1.376 6.091c.05.409.269.792.656 1.15.394.35.866.526 1.418.526.566 0 1.095-.165 1.59-.494.494-.33.916-.777 1.267-1.343Zm15.416 1.053-.162.687a24.36 24.36 0 0 1-1.503.559c-.358.122-.72.183-1.085.183-.573 0-1.003-.147-1.29-.44-.286-.302-.43-.67-.43-1.107 0-.158.015-.33.044-.516a7.19 7.19 0 0 1 .14-.677l1.052-4.007c.079-.307.14-.587.183-.837.05-.251.075-.451.075-.602 0-.48-.115-.86-.344-1.139-.229-.279-.57-.419-1.02-.419-.459 0-.956.147-1.493.44-.53.295-1.035.706-1.515 1.236L44.926 19h-1.998l3.19-13.825c.037-.165.065-.305.087-.42.029-.114.043-.235.043-.364 0-.258-.043-.455-.13-.591a.801.801 0 0 0-.364-.322 1.691 1.691 0 0 0-.559-.13 23.8 23.8 0 0 1-.709-.075l.15-.655 3.986-.247.107.161-1.718 7.434h.042c.738-.595 1.397-1.042 1.977-1.343.58-.308 1.239-.462 1.977-.462.687 0 1.224.2 1.61.602.388.394.581.913.581 1.557a6.3 6.3 0 0 1-.064.688c-.036.33-.097.655-.183.977l-.902 3.449c-.058.229-.119.494-.183.795a3.432 3.432 0 0 0-.097.687c0 .408.09.688.269.838.179.143.473.215.88.215.137 0 .33-.022.58-.065.259-.05.456-.1.592-.15Zm7.66-.172h-.076a15.93 15.93 0 0 0-.57.494c-.214.194-.468.38-.762.559-.28.179-.584.333-.913.462-.33.136-.688.204-1.074.204-1.039 0-1.855-.373-2.45-1.117-.587-.745-.88-1.762-.88-3.051 0-.888.164-1.751.494-2.59.33-.837.784-1.589 1.364-2.255a6.437 6.437 0 0 1 1.966-1.536c.759-.394 1.54-.59 2.342-.59.508 0 .991.067 1.45.203.465.136.83.29 1.096.462l1.965-.505.13.161-1.634 6.93a15.57 15.57 0 0 0-.182.816 4.347 4.347 0 0 0-.086.698c0 .408.086.684.258.827.172.143.462.215.87.215.136 0 .33-.022.58-.065.25-.043.444-.09.58-.14l-.161.688c-.645.258-1.124.444-1.44.559-.315.114-.698.172-1.149.172-.516 0-.924-.15-1.225-.452-.3-.3-.465-.684-.494-1.149Zm1.535-6.789c0-.236-.025-.462-.075-.677a1.429 1.429 0 0 0-.311-.601 1.488 1.488 0 0 0-.591-.43c-.25-.107-.566-.161-.946-.161-.522 0-1.03.172-1.525.515-.494.344-.938.806-1.332 1.386-.372.545-.677 1.203-.913 1.977a8.01 8.01 0 0 0-.355 2.352c0 .437.026.824.076 1.16.05.337.146.645.29.924.136.272.333.484.59.634.258.15.584.226.978.226.401 0 .82-.111 1.257-.333.444-.23.942-.627 1.493-1.193l1.364-5.779Zm15.502 6.96-.161.688c-.645.258-1.146.444-1.504.559-.358.122-.72.183-1.085.183-.573 0-1.003-.147-1.29-.44-.286-.302-.429-.67-.429-1.107 0-.158.014-.33.043-.516.029-.193.075-.419.14-.677l1.052-4.007c.08-.307.14-.587.183-.837.05-.251.075-.451.075-.602 0-.48-.114-.86-.344-1.139-.229-.279-.569-.419-1.02-.419-.437 0-.928.144-1.472.43-.544.287-1.056.702-1.536 1.246L69.624 19h-1.998l1.6-6.96c.036-.173.086-.42.15-.742a3.94 3.94 0 0 0 .108-.795c0-.401-.068-.67-.204-.806-.136-.136-.408-.204-.817-.204-.157 0-.358.029-.601.086-.243.05-.433.093-.57.129l.162-.687c.558-.251 1.053-.437 1.482-.56.43-.12.799-.182 1.107-.182.565 0 .97.154 1.213.462.244.308.373.734.387 1.279h.065c.787-.63 1.468-1.096 2.04-1.397.574-.308 1.225-.462 1.956-.462.687 0 1.224.2 1.611.602.387.394.58.913.58 1.557 0 .13-.021.358-.064.688-.036.33-.097.655-.183.977l-.902 3.449c-.065.229-.13.494-.194.795a3.84 3.84 0 0 0-.086.687c0 .408.09.688.269.838.179.143.473.215.88.215.137 0 .33-.022.58-.065.259-.05.456-.1.592-.15Zm6.112.076-.16.688c-.66.265-1.186.447-1.58.547-.394.108-.73.162-1.01.162-.572 0-1.002-.147-1.289-.44-.286-.302-.43-.67-.43-1.107 0-.165.015-.337.044-.516.028-.179.075-.404.14-.677l1.138-4.565c.057-.25.111-.52.161-.806.058-.286.086-.53.086-.73 0-.401-.068-.666-.204-.795-.129-.136-.398-.204-.806-.204-.157 0-.368.025-.633.075-.258.05-.455.093-.591.129l.16-.688a10.56 10.56 0 0 1 1.505-.558c.444-.122.795-.183 1.052-.183.588 0 1.014.14 1.279.42.265.278.397.654.397 1.127a5.449 5.449 0 0 1-.172 1.192l-1.149 4.566c-.072.28-.136.555-.193.827-.05.265-.076.483-.076.655 0 .408.09.688.269.838.186.15.483.226.892.226.136 0 .329-.018.58-.054.258-.036.454-.079.59-.129Zm.763-13.728c0 .408-.132.766-.397 1.074-.265.3-.595.451-.989.451-.365 0-.68-.143-.945-.43a1.451 1.451 0 0 1-.397-.999c0-.394.132-.737.397-1.031.265-.294.58-.44.945-.44.409 0 .742.14 1 .419.257.272.386.59.386.956Zm9.379 6.295c0 .759-.24 1.41-.72 1.955-.473.544-1.164.977-2.073 1.3-.666.243-1.34.44-2.02.59-.68.15-1.432.276-2.256.376 0 1.132.208 1.998.623 2.6.423.594 1.039.891 1.848.891.716 0 1.346-.179 1.89-.537.552-.358 1.093-.891 1.623-1.6l.612.45a6.736 6.736 0 0 1-2.148 2.096c-.86.522-1.752.784-2.675.784-1.268 0-2.238-.355-2.912-1.064-.665-.709-.998-1.715-.998-3.018 0-.903.14-1.762.418-2.578a7.564 7.564 0 0 1 1.246-2.256 6.15 6.15 0 0 1 1.945-1.612A5.392 5.392 0 0 1 92 8.161c1.032 0 1.794.211 2.289.634.5.415.752.949.752 1.6Zm-1.977-.269c0-.28-.04-.498-.118-.655a.863.863 0 0 0-.301-.366.996.996 0 0 0-.408-.16 2.965 2.965 0 0 0-.44-.033c-.86 0-1.655.473-2.385 1.418-.724.945-1.182 2.123-1.375 3.534a29.088 29.088 0 0 0 1.697-.3c.63-.137 1.153-.312 1.568-.527.595-.308 1.035-.702 1.322-1.182.293-.486.44-1.063.44-1.729Zm25.857-6.37-.161.709c-.2.007-.451.04-.752.096-.301.058-.53.111-.687.162-.28.093-.48.24-.602.44a2.3 2.3 0 0 0-.268.645l-2.557 11.096a1.944 1.944 0 0 0-.043.376c0 .15.032.283.097.398a.918.918 0 0 0 .311.311c.108.065.301.13.58.194.287.064.53.1.731.107l-.161.709h-6.328l.162-.709c.179-.014.433-.036.762-.064.33-.03.562-.072.699-.13.25-.092.444-.229.58-.408.136-.179.232-.4.29-.666l1.267-5.5h-7.165l-1.235 5.382a1.476 1.476 0 0 0-.043.365c0 .144.032.28.097.409a.808.808 0 0 0 .311.311c.107.065.301.13.58.194.287.064.53.1.731.107l-.162.709h-6.327l.162-.709.762-.064c.33-.03.562-.072.698-.13.251-.092.444-.229.58-.408.137-.179.233-.4.291-.666l2.567-11.107a1.482 1.482 0 0 0 .043-.365.814.814 0 0 0-.097-.408c-.057-.115-.165-.215-.322-.301a3.119 3.119 0 0 0-.645-.247 3.546 3.546 0 0 0-.687-.13l.161-.708h6.327l-.161.709c-.2.007-.451.04-.752.096-.301.058-.53.111-.687.162-.28.093-.48.24-.602.44s-.211.415-.269.645l-1.095 4.801h7.165l1.074-4.694a1.482 1.482 0 0 0 .043-.354.814.814 0 0 0-.097-.409.711.711 0 0 0-.322-.311 3.13 3.13 0 0 0-.644-.247 3.555 3.555 0 0 0-.688-.13l.161-.708h6.327Zm9.572 8.626a7.84 7.84 0 0 1-.43 2.535 6.674 6.674 0 0 1-1.246 2.224 6.363 6.363 0 0 1-1.998 1.59c-.773.393-1.672.59-2.696.59-1.189 0-2.156-.383-2.9-1.15-.738-.765-1.107-1.797-1.107-3.093 0-.952.158-1.84.473-2.664a7.391 7.391 0 0 1 1.267-2.17 6.057 6.057 0 0 1 1.988-1.504 5.814 5.814 0 0 1 2.578-.58c1.274 0 2.27.39 2.986 1.171.723.773 1.085 1.79 1.085 3.05Zm-2.191-.408c0-1.017-.183-1.78-.548-2.288-.358-.509-.878-.763-1.558-.763-.594 0-1.156.182-1.686.548-.523.365-.974.96-1.354 1.783a8.234 8.234 0 0 0-.644 2.084c-.137.759-.205 1.46-.205 2.105 0 1.024.176 1.801.527 2.331.358.523.895.785 1.611.785.638 0 1.203-.201 1.697-.602.495-.401.896-.91 1.204-1.525a8.358 8.358 0 0 0 .709-2.063c.164-.78.247-1.579.247-2.395Zm8.916-9.443-2.997 12.934c-.064.272-.125.544-.183.816a3.401 3.401 0 0 0-.086.666c0 .408.09.688.269.838.186.15.483.226.892.226.143 0 .354-.018.633-.054.287-.036.502-.079.645-.129l-.161.688c-.645.257-1.142.44-1.493.547a3.924 3.924 0 0 1-1.171.162c-.573 0-1.01-.147-1.311-.44-.293-.302-.44-.67-.44-1.107 0-.165.014-.337.043-.516l.139-.677 2.611-11.311c.05-.222.082-.376.096-.462.022-.086.033-.193.033-.322 0-.258-.043-.455-.129-.591a.801.801 0 0 0-.366-.322 1.908 1.908 0 0 0-.569-.13 25.794 25.794 0 0 1-.698-.075l.15-.655 3.986-.247.107.161Zm18.112 15.254-.161.688c-.659.265-1.186.447-1.579.547a3.945 3.945 0 0 1-1.01.162c-.573 0-1.003-.147-1.289-.44-.287-.302-.43-.67-.43-1.107 0-.158.014-.33.043-.516.029-.193.075-.419.14-.677l1.052-4.007c.079-.307.14-.587.183-.837.05-.251.075-.451.075-.602 0-.48-.104-.86-.311-1.139-.208-.279-.537-.419-.989-.419-.479 0-.952.115-1.418.344-.458.222-.977.641-1.557 1.257L144.21 19h-1.998l1.686-7.176c.036-.157.068-.322.097-.494.036-.179.054-.311.054-.397 0-.466-.119-.831-.355-1.096-.229-.265-.569-.398-1.02-.398-.409 0-.86.104-1.354.312-.494.2-1.067.655-1.719 1.364L137.786 19h-1.998l1.6-6.96c.058-.252.111-.52.162-.807.057-.286.085-.53.085-.73 0-.415-.068-.688-.204-.816-.136-.137-.401-.205-.795-.205a2.88 2.88 0 0 0-.612.086c-.243.058-.433.104-.569.14l.161-.687c.559-.251 1.053-.437 1.482-.56.43-.12.799-.182 1.107-.182.573 0 .977.158 1.214.473.243.308.372.73.386 1.268h.065c.845-.666 1.54-1.143 2.084-1.43.544-.286 1.192-.429 1.944-.429.638 0 1.153.186 1.547.559.401.365.627.827.677 1.385h.043c.766-.637 1.446-1.12 2.041-1.45.601-.33 1.3-.494 2.095-.494.687 0 1.213.2 1.579.602.372.394.558.913.558 1.557 0 .13-.021.358-.064.688-.036.33-.097.655-.183.977l-.902 3.449c-.065.229-.126.494-.183.795a3.869 3.869 0 0 0-.086.687c0 .408.086.688.258.838.172.143.462.215.87.215.136 0 .333-.018.591-.054.258-.036.455-.079.591-.129Zm10.141-7.39c0 .759-.24 1.41-.72 1.955-.473.544-1.164.977-2.073 1.3-.666.243-1.339.44-2.02.59-.68.15-1.432.276-2.256.376 0 1.132.208 1.998.624 2.6.422.594 1.038.891 1.847.891.716 0 1.347-.179 1.891-.537.551-.358 1.092-.891 1.622-1.6l.612.45a6.739 6.739 0 0 1-2.148 2.096c-.86.522-1.751.784-2.675.784-1.268 0-2.238-.355-2.911-1.064-.666-.709-.999-1.715-.999-3.018 0-.903.139-1.762.419-2.578a7.558 7.558 0 0 1 1.246-2.256 6.153 6.153 0 0 1 1.944-1.612 5.395 5.395 0 0 1 2.557-.612c1.031 0 1.794.211 2.288.634.501.415.752.949.752 1.6Zm-1.977-.269c0-.28-.039-.498-.118-.655a.863.863 0 0 0-.301-.366.997.997 0 0 0-.408-.16 2.962 2.962 0 0 0-.44-.033c-.86 0-1.655.473-2.385 1.418-.723.945-1.182 2.123-1.375 3.534a29.097 29.097 0 0 0 1.697-.3c.63-.137 1.153-.312 1.569-.527.594-.308 1.034-.702 1.321-1.182.293-.486.44-1.063.44-1.729Zm5.855 9.184c-1.06 0-1.944-.186-2.653-.558-.702-.38-1.053-.874-1.053-1.483 0-.286.104-.555.312-.805.207-.25.462-.376.762-.376.287 0 .516.068.688.204.179.129.319.283.419.462.107.186.2.408.279.666.086.258.158.469.215.634.107.121.254.236.44.343.194.1.469.15.828.15.773 0 1.357-.192 1.751-.58.401-.386.601-.909.601-1.568 0-.487-.186-.873-.559-1.16-.372-.293-.927-.562-1.665-.805a7.743 7.743 0 0 1-.934-.387 3.63 3.63 0 0 1-.859-.57 2.699 2.699 0 0 1-.624-.816c-.157-.315-.236-.687-.236-1.117 0-.917.408-1.708 1.225-2.374.823-.673 1.833-1.01 3.029-1.01.279 0 .58.014.902.043.323.029.677.108 1.064.236.336.115.623.287.859.516.237.222.355.512.355.87 0 .294-.101.562-.301.806a.947.947 0 0 1-.773.354c-.265 0-.484-.057-.656-.171a1.396 1.396 0 0 1-.429-.463 3.06 3.06 0 0 1-.28-.623 9.78 9.78 0 0 0-.236-.655 1.946 1.946 0 0 0-.365-.118 2.29 2.29 0 0 0-.43-.032c-.702 0-1.235.19-1.601.57a1.856 1.856 0 0 0-.537 1.331c0 .502.161.881.484 1.139.329.25.87.512 1.622.784.974.351 1.679.752 2.116 1.203.444.451.666 1.01.666 1.676 0 1.088-.419 1.976-1.257 2.664-.838.68-1.894 1.02-3.169 1.02Z" fill="#E9DEFF"/><path d="M1 25.75c26.065-3.597 100.613-6.091 173-1.527" stroke="#E9DEFF" stroke-linecap="round"/></svg>